<?xml version="1.0" encoding="UTF-8"?>
<svg width="162px" height="24px" viewBox="0 0 162 24" version="1.1" xmlns="http://www.w3.org/2000/svg" xmlns:xlink="http://www.w3.org/1999/xlink">
    <!-- Generator: Sketch 51.1 (57501) - http://www.bohemiancoding.com/sketch -->
    <title>rifood_logo</title>
    <desc>Created with Sketch.</desc>
    <defs></defs>
    <g id="RIFOOD" stroke="none" stroke-width="1" fill="none" fill-rule="evenodd">
        <g id="Extra-large:-Desktops---12-col-Copy-2" transform="translate(-166.000000, -29.000000)" fill-rule="nonzero">
            <g id="rifood_logo" transform="translate(166.000000, 29.000000)">
                <path d="M6.65806452,13.316129 L4.10477419,8.90167742 C3.97611493,8.67947363 3.97611493,8.40542959 4.10477419,8.18322581 L6.65806452,3.77651613 C6.78566178,3.55487141 7.02167152,3.41798576 7.27741935,3.41729032 L15.5783226,3.41729032 C15.8360084,3.41659924 16.0736782,3.27824773 16.2015267,3.05451295 C16.3293751,2.83077817 16.3279071,2.55577649 16.1976774,2.33341935 L15.0596129,0.359225806 C14.9315517,0.138044145 14.6958344,0.00132811252 14.4402581,0 L5.39458065,0 C5.13883281,0.000695441803 4.90282307,0.13758109 4.77522581,0.359225806 L0.25083871,8.18632258 C0.12217945,8.40852637 0.12217945,8.68257041 0.25083871,8.90477419 L4.77212903,16.7349677 C4.90064861,16.9556908 5.13607801,17.0922399 5.39148387,17.0941935 L14.4340645,17.0941935 C14.6896408,17.0928654 14.9253581,16.9561494 15.0534194,16.7349677 L16.2007742,14.7468387 C16.3310039,14.5244816 16.3324719,14.2494799 16.2046235,14.0257451 C16.076775,13.8020103 15.8391052,13.6636588 15.5814194,13.6629677 L7.27741935,13.6629677 C7.02420125,13.6648531 6.78877198,13.5330127 6.65806452,13.316129 Z" id="Shape" fill="#37B34A"></path>
                <path d="M17.8823226,20.16 L20.427871,15.7532903 C20.5564866,15.5305215 20.5564866,15.2560591 20.427871,15.0332903 L17.8823226,10.6265806 C17.7542613,10.405399 17.518544,10.268683 17.2629677,10.2673548 L8.95432258,10.2673548 C8.69622441,10.2676332 8.4578096,10.1294476 8.32975697,9.90535546 C8.20170434,9.68126337 8.20369345,9.40570404 8.33496774,9.18348387 L9.47767742,7.20464516 C9.60527468,6.98300045 9.84128442,6.8461148 10.0970323,6.84541935 L19.1396129,6.84541935 C19.3953607,6.8461148 19.6313705,6.98300045 19.7589677,7.20464516 L24.2787097,15.0301935 C24.4073689,15.2523973 24.4073689,15.5264414 24.2787097,15.7486452 L19.7574194,23.5788387 C19.6300562,23.8007167 19.3938985,23.9376881 19.1380645,23.9380645 L10.0970323,23.9380645 C9.84128442,23.9373691 9.60527468,23.8004834 9.47767742,23.5788387 L8.33032258,21.5922581 C8.20009285,21.3699009 8.19862486,21.0948993 8.32647331,20.8711645 C8.45432175,20.6474297 8.69199157,20.5090782 8.94967742,20.5083871 L17.259871,20.5083871 C17.5145038,20.5110484 17.7514382,20.3784359 17.8823226,20.16 Z" id="Shape" fill="#333333"></path>
                <path d="M33.6696774,0.702961328 L45.1587097,0.702967742 C46.137356,0.701965552 47.1125865,0.818410981 48.0634839,1.04980645 C48.9676138,1.26178163 49.8241378,1.64094187 50.5889032,2.16774194 C51.32395,2.68313902 51.9335907,3.35734235 52.3726452,4.1403871 C52.8247742,4.9403871 53.0508387,5.90864516 53.0508387,7.04516129 C53.0595488,8.23326979 52.7597068,9.40329392 52.1806452,10.4407742 C51.5932266,11.4892878 50.6469388,12.2904159 49.515871,12.6967742 L49.515871,12.7602581 C50.0709745,12.8889615 50.5825092,13.1612817 50.9992258,13.5499355 C51.4008267,13.9307554 51.7320968,14.3794376 51.9778065,14.8753548 C52.2339529,15.3916117 52.4248399,15.937746 52.5460645,16.5011613 C52.6670697,17.0471687 52.7513872,17.6006642 52.7984516,18.1579355 C52.8180645,18.3901935 52.8392258,18.747871 52.8619355,19.2309677 C52.8820645,19.7156129 52.9254194,20.2203871 52.9873548,20.7468387 C53.0456796,21.2476293 53.1409063,21.7434291 53.2722581,22.2301935 C53.3514158,22.5983455 53.5134563,22.9436082 53.7460645,23.2397419 L47.9365161,23.2397419 C47.7902471,22.9960487 47.6855893,22.7296945 47.6268387,22.4516129 C47.5397218,22.1037642 47.4760944,21.7504511 47.4363871,21.3940645 C47.3945806,21.0255484 47.3620645,20.6833548 47.3419355,20.3674839 C47.3218065,20.0516129 47.300129,19.8100645 47.2784516,19.6412903 C47.2371613,19.0725161 47.1741935,18.5150968 47.0895484,17.9690323 C47.0147516,17.4512833 46.854646,16.9495143 46.6157419,16.484129 C46.39321,16.0535246 46.060995,15.6892632 45.6526452,15.428129 C45.2397419,15.1649032 44.6874839,15.0332903 43.995871,15.0332903 L39.5411613,15.0332903 L39.5411613,23.2397419 L33.6696774,23.2397419 L33.6696774,0.702961328 Z M39.5411613,10.4887742 L44.4650323,10.4887742 C45.3486452,10.4887742 46.0221935,10.2627097 46.4856774,9.81058065 C46.9491613,9.35845161 47.1803871,8.70090323 47.1793548,7.83793548 C47.1793548,6.9956129 46.8903226,6.37987097 46.3122581,5.99070968 C45.6873606,5.58864141 44.9553963,5.38513806 44.2126452,5.40696774 L39.5411613,5.40696774 L39.5411613,10.4887742 Z" id="Shape" fill="#37B34A"></path>
                <polygon id="Shape" fill="#37B34A" points="57.7223226 0.702967742 63.5938065 0.702967742 63.5938065 23.2412903 57.7223226 23.2412903"></polygon>
                <polygon id="Shape" fill="#333333" points="68.928 0.702967742 85.5313548 0.702967742 85.5313548 5.40696774 74.7994839 5.40696774 74.7994839 10.0149677 84.0774194 10.0149677 84.0774194 14.5548387 74.7994839 14.5548387 74.7994839 23.2412903 68.928 23.2412903"></polygon>
                <path d="M88.6250323,11.972129 C88.6122463,10.4104751 88.8629901,8.85785276 89.3667097,7.3796129 C89.8349643,6.00628304 90.5718582,4.73987827 91.5344516,3.65419355 C92.5009568,2.57694973 93.6888423,1.72129182 95.0167742,1.14580645 C96.3948387,0.535741935 97.968,0.230193548 99.7362581,0.22916129 C101.504516,0.228129032 103.077677,0.533677419 104.455742,1.14580645 C105.785584,1.721076 106.975536,2.5767007 107.944258,3.65419355 C108.906348,4.74024231 109.64318,6.00654084 110.112,7.3796129 C110.61572,8.85785276 110.866463,10.4104751 110.853677,11.972129 C110.864819,13.535174 110.611975,15.0888818 110.105806,16.5677419 C109.637703,17.9411407 108.900793,19.2075739 107.938065,20.2931613 C106.969826,21.3715795 105.779777,22.2278024 104.449548,22.8030968 C103.071484,23.4131613 101.498323,23.7181935 99.7300645,23.7181935 C97.9618065,23.7181935 96.3886452,23.4131613 95.0105806,22.8030968 C93.6819464,22.2246853 92.4944372,21.3652203 91.5298065,20.283871 C90.5666061,19.1986254 89.8296375,17.9320922 89.3620645,16.5584516 C88.8606108,15.081906 88.6114479,13.5314425 88.6250323,11.972129 Z M94.4965161,11.972129 C94.4949662,12.8009976 94.5900598,13.6272205 94.779871,14.4340645 C94.952949,15.1984713 95.2612827,15.9257822 95.6903226,16.5816774 C96.1048466,17.2079462 96.6620404,17.7269325 97.316129,18.096 C97.9788387,18.4748387 98.7834839,18.6642581 99.7300645,18.6642581 C100.676645,18.6642581 101.481806,18.4748387 102.145548,18.096 C102.798975,17.7260284 103.355976,17.2072215 103.771355,16.5816774 C104.202058,15.9261271 104.511975,15.1987925 104.686452,14.4340645 C105.064196,12.8145087 105.064196,11.1297493 104.686452,9.51019355 C104.511991,8.74594231 104.202066,8.01911342 103.771355,7.36412903 C102.868924,6.01574484 101.353344,5.20638401 99.7308387,5.20638401 C98.1083339,5.20638401 96.5927537,6.01574484 95.6903226,7.36412903 C95.259126,8.01903518 94.9486788,8.74585915 94.7736774,9.51019355 C94.5861311,10.3173139 94.4931188,11.1435125 94.4965161,11.972129 Z" id="Shape" fill="#333333"></path>
                <path d="M114.445935,11.972129 C114.43315,10.4104751 114.683893,8.85785276 115.187613,7.3796129 C115.656508,6.00657513 116.393332,4.74029072 117.355355,3.65419355 C118.322439,2.57691486 119.510835,1.72126989 120.839226,1.14580645 C122.21729,0.535741935 123.789935,0.230193548 125.557161,0.22916129 C127.324387,0.228129032 128.897548,0.533677419 130.276645,1.14580645 C131.606487,1.721076 132.796439,2.5767007 133.765161,3.65419355 C134.727184,4.74029072 135.464008,6.00657513 135.932903,7.3796129 C136.436623,8.85785276 136.687367,10.4104751 136.674581,11.972129 C136.68622,13.5350858 136.4339,15.0887912 135.928258,16.5677419 C135.460079,17.9411063 134.723177,19.2075252 133.760516,20.2931613 C132.792278,21.3715795 131.602228,22.2278024 130.272,22.8030968 C128.893935,23.4131613 127.320774,23.7181935 125.552516,23.7181935 C123.784258,23.7181935 122.211613,23.4131613 120.834581,22.8030968 C119.504932,22.2248997 118.316368,21.365436 117.35071,20.283871 C116.388049,19.1982349 115.651147,17.9318159 115.182968,16.5584516 C114.681514,15.081906 114.432351,13.5314425 114.445935,11.972129 Z M120.317419,11.972129 C120.316377,12.8010582 120.41199,13.6272819 120.602323,14.4340645 C120.776128,15.1990102 121.086094,15.9264609 121.517419,16.5816774 C121.932798,17.2072215 122.489799,17.7260284 123.143226,18.096 C123.805935,18.4748387 124.610581,18.6642581 125.557161,18.6642581 C126.503742,18.6642581 127.308903,18.4748387 127.972645,18.096 C128.626072,17.7260284 129.183073,17.2072215 129.598452,16.5816774 C130.029777,15.9264609 130.339743,15.1990102 130.513548,14.4340645 C130.89341,12.8147531 130.89341,11.129505 130.513548,9.51019355 C130.340237,8.74582847 130.03079,8.01888933 129.6,7.36412903 C128.697569,6.01574484 127.181989,5.20638401 125.559484,5.20638401 C123.936979,5.20638401 122.421399,6.01574484 121.518968,7.36412903 C121.087633,8.01877886 120.777659,8.74572413 120.603871,9.51019355 C120.413198,10.3169465 120.317067,11.1431499 120.317419,11.972129 Z" id="Shape" fill="#333333"></path>
                <path d="M141.12,0.702967742 L150.812903,0.702967742 C152.393919,0.678177444 153.966759,0.934550436 155.458065,1.46012903 C156.765987,1.92834195 157.952256,2.68391416 158.929548,3.67122581 C159.899375,4.67485707 160.642324,5.87508603 161.108129,7.19070968 C161.634076,8.69637523 161.890388,10.2829926 161.86529,11.8776774 C161.86529,13.7295484 161.612903,15.3605161 161.108129,16.7705806 C160.650885,18.10342 159.901218,19.3170658 158.914065,20.3225806 C157.92717,21.2981215 156.735521,22.0417786 155.425548,22.4996129 C153.943003,23.0138853 152.381934,23.264893 150.812903,23.2412903 L141.12,23.2412903 L141.12,0.702967742 Z M146.991484,18.1904562 L149.76929,18.1904516 C150.735103,18.1913503 151.696423,18.059006 152.626065,17.7971613 C153.352423,17.5919728 154.015053,17.2063268 154.552258,16.676129 C155.068399,16.1283773 155.440784,15.4612762 155.636129,14.7344516 C155.886307,13.7928445 156.003059,12.8207782 155.982968,11.8467097 C155.982968,9.78219355 155.451871,8.25083871 154.389677,7.25264516 C153.327484,6.25445161 151.785806,5.75483871 149.764645,5.75380645 L146.991484,5.75380645 L146.991484,18.1904562 Z" id="Shape" fill="#333333"></path>
            </g>
        </g>
    </g>
</svg>